<svg width="14" height="14" viewBox="0 0 14 14" fill="none" xmlns="http://www.w3.org/2000/svg">
<path fill-rule="evenodd" clip-rule="evenodd" d="M8.75008 9.55078C9.83305 9.55078 10.8717 9.0668 11.6374 8.2053C12.4032 7.34381 12.8334 6.17537 12.8334 4.95703C12.8334 4.78298 12.772 4.61606 12.6626 4.49299C12.5532 4.36992 12.4048 4.30078 12.2501 4.30078H10.5001C9.92627 4.30132 9.35903 4.43826 8.83553 4.70262C8.31203 4.96697 7.8441 5.35278 7.46237 5.83477C7.2454 4.83642 6.73712 3.94877 6.0188 3.31377C5.30049 2.67876 4.41363 2.33309 3.50008 2.33203H1.75008C1.59537 2.33203 1.447 2.40117 1.3376 2.52424C1.22821 2.64731 1.16675 2.81423 1.16675 2.98828C1.16675 4.20662 1.59696 5.37506 2.36273 6.23655C3.1285 7.09805 4.16711 7.58203 5.25008 7.58203H6.41675V11.5195H2.33341C2.17871 11.5195 2.03033 11.5887 1.92094 11.7117C1.81154 11.8348 1.75008 12.0017 1.75008 12.1758C1.75008 12.3498 1.81154 12.5167 1.92094 12.6398C2.03033 12.7629 2.17871 12.832 2.33341 12.832H2.91675H11.0834H11.6667C11.8215 12.832 11.9698 12.7629 12.0792 12.6398C12.1886 12.5167 12.2501 12.3498 12.2501 12.1758C12.2501 12.0017 12.1886 11.8348 12.0792 11.7117C11.9698 11.5887 11.8215 11.5195 11.6667 11.5195H7.58342V9.55078H8.75008ZM11.6084 5.61328H10.5001C9.8277 5.61313 9.17592 5.87433 8.65506 6.35267C8.13419 6.83102 7.77622 7.49714 7.64175 8.23828H8.75008C9.42246 8.23844 10.0742 7.97724 10.5951 7.49889C11.116 7.02054 11.4739 6.35443 11.6084 5.61328ZM3.40505 5.53014C3.92592 6.00849 4.5777 6.26969 5.25008 6.26953H6.35841C6.22394 5.52839 5.86598 4.86227 5.34511 4.38392C4.82424 3.90558 4.17246 3.64438 3.50008 3.64453H2.39175C2.52622 4.38568 2.88419 5.05179 3.40505 5.53014Z" fill="white"/>
</svg>
